<svg xmlns="http://www.w3.org/2000/svg" xmlns:xlink="http://www.w3.org/1999/xlink" xmlns:lucid="lucid" width="1318" height="1030"><g transform="translate(-220 -288)" lucid:page-tab-id="0_0"><path d="M928 306.75c17.67 0 32 17.9 32 40s-14.33 40-32 40h-96c-17.67 0-32-17.9-32-40s14.33-40 32-40z" stroke="#000" stroke-opacity="0" fill="#ff741d"/><use xlink:href="#a" transform="matrix(1,0,0,1,805.0000000000005,311.75000000004934) translate(19.14999999999999 27.799999999999997)"/><use xlink:href="#b" transform="matrix(1,0,0,1,805.0000000000005,311.75000000004934) translate(48.05 27.799999999999997)"/><use xlink:href="#c" transform="matrix(1,0,0,1,805.0000000000005,311.75000000004934) translate(84.95 27.799999999999997)"/><use xlink:href="#d" transform="matrix(1,0,0,1,805.0000000000005,311.75000000004934) translate(17.17499999999999 49.4)"/><use xlink:href="#e" transform="matrix(1,0,0,1,805.0000000000005,311.75000000004934) translate(58.074999999999996 49.4)"/><use xlink:href="#f" transform="matrix(1,0,0,1,805.0000000000005,311.75000000004934) translate(79.975 49.4)"/><path d="M528 722.38c17.67 0 32 17.9 32 40s-14.33 40-32 40h-96c-17.67 0-32-17.9-32-40s14.33-40 32-40z" stroke="#000" stroke-opacity="0" fill="#ff741d"/><use xlink:href="#a" transform="matrix(1,0,0,1,405.00000000000045,727.384787788614) translate(10.699999999999989 27.799999999999997)"/><use xlink:href="#b" transform="matrix(1,0,0,1,405.00000000000045,727.384787788614) translate(39.599999999999994 27.799999999999997)"/><use xlink:href="#g" transform="matrix(1,0,0,1,405.00000000000045,727.384787788614) translate(76.5 27.799999999999997)"/><use xlink:href="#h" transform="matrix(1,0,0,1,405.00000000000045,727.384787788614) translate(122.4 27.799999999999997)"/><use xlink:href="#i" transform="matrix(1,0,0,1,405.00000000000045,727.384787788614) translate(11.649999999999991 49.4)"/><use xlink:href="#j" transform="matrix(1,0,0,1,405.00000000000045,727.384787788614) translate(69.5 49.4)"/><path d="M1328 722.38c17.67 0 32 17.9 32 40s-14.33 40-32 40h-96c-17.67 0-32-17.9-32-40s14.33-40 32-40z" stroke="#000" stroke-opacity="0" fill="#ff741d"/><use xlink:href="#a" transform="matrix(1,0,0,1,1205.0000000000005,727.384787788614) translate(10.699999999999989 27.799999999999997)"/><use xlink:href="#b" transform="matrix(1,0,0,1,1205.0000000000005,727.384787788614) translate(39.599999999999994 27.799999999999997)"/><use xlink:href="#g" transform="matrix(1,0,0,1,1205.0000000000005,727.384787788614) translate(76.5 27.799999999999997)"/><use xlink:href="#h" transform="matrix(1,0,0,1,1205.0000000000005,727.384787788614) translate(122.4 27.799999999999997)"/><use xlink:href="#i" transform="matrix(1,0,0,1,1205.0000000000005,727.384787788614) translate(11.649999999999991 49.4)"/><use xlink:href="#j" transform="matrix(1,0,0,1,1205.0000000000005,727.384787788614) translate(69.5 49.4)"/><path d="M605.27 400.5H492.03l-3 .4-2.77 1.14-2.4 1.83-1.82 2.4-1.14 2.75-.4 3v54.66h-1v-54.7l.42-3.22 1.24-3 2-2.6 2.6-2 3-1.24 3.2-.42h113.3m275.24-11.47l-.42 3.2-1.24 3-2 2.6-2.6 2-3 1.25-3.2.42H634.6v-1h233.35l3-.4 2.77-1.14 2.4-1.83 1.82-2.4 1.14-2.75.4-3v-.73h1" fill="#333"/><path d="M880.5 387.26h-1v-.5h1M480 481.45l-4.64-14.27h9.28z" fill="#333"/><path d="M480 483.06l-5.32-16.38h10.64m-9.27 1l3.95 12.15 3.95-12.15" fill="#333"/><use xlink:href="#k" transform="matrix(1,0,0,1,605.2712717984218,389.2) translate(0.005000000000000782 14.4)"/><path d="M1268.03 399.5l3.2.42 3 1.24 2.6 2 2 2.6 1.25 3 .42 3.2v54.72h-1v-54.65l-.4-3-1.14-2.77-1.83-2.4-2.4-1.82-2.75-1.14-3-.4h-141.6v-1m-245.48-8.52l1.14 2.76 1.83 2.4 2.4 1.82 2.75 1.14 3 .4h211.4v1H891.98l-3.2-.42-3-1.24-2.6-2-2-2.6-1.25-3-.42-3.2v-.8h1v.73" fill="#333"/><path d="M880.5 387.26h-1v-.5h1M1280 481.45l-4.64-14.27h9.28z" fill="#333"/><path d="M1280 483.06l-5.32-16.38h10.64m-9.27 1l3.95 12.15 3.95-12.15" fill="#333"/><use xlink:href="#l" transform="matrix(1,0,0,1,1103.4319884115266,389.2) translate(0.005000000000000782 14.4)"/><path d="M1168 875.88c17.67 0 32 17.9 32 40s-14.33 40-32 40h-96c-17.67 0-32-17.9-32-40s14.33-40 32-40z" stroke="#000" stroke-opacity="0" fill="#ff741d"/><use xlink:href="#m" transform="matrix(1,0,0,1,1045.0000000000005,880.8847247831685) translate(58.525 27.799999999999997)"/><use xlink:href="#n" transform="matrix(1,0,0,1,1045.0000000000005,880.8847247831685) translate(16.099999999999994 49.4)"/><path d="M1488 875.88c17.67 0 32 17.9 32 40s-14.33 40-32 40h-96c-17.67 0-32-17.9-32-40s14.33-40 32-40z" stroke="#000" stroke-opacity="0" fill="#ff741d"/><use xlink:href="#o" transform="matrix(1,0,0,1,1365.0000000000005,880.8847247831685) translate(20.099999999999994 38.6)"/><use xlink:href="#p" transform="matrix(1,0,0,1,1365.0000000000005,880.8847247831685) translate(86.95 38.6)"/><path d="M688 875.88c17.67 0 32 21.58 32 48.2 0 26.62-14.33 48.2-32 48.2h-96c-17.67 0-32-21.58-32-48.2 0-26.62 14.33-48.2 32-48.2z" stroke="#000" stroke-opacity="0" fill="#ff741d"/><use xlink:href="#q" transform="matrix(1,0,0,1,565.0000000000005,880.8847247831685) translate(12.17499999999999 14.69999999999999)"/><use xlink:href="#r" transform="matrix(1,0,0,1,565.0000000000005,880.8847247831685) translate(62.02499999999999 14.69999999999999)"/><use xlink:href="#s" transform="matrix(1,0,0,1,565.0000000000005,880.8847247831685) translate(82.975 14.69999999999999)"/><use xlink:href="#t" transform="matrix(1,0,0,1,565.0000000000005,880.8847247831685) translate(56.075 36.29999999999999)"/><use xlink:href="#u" transform="matrix(1,0,0,1,565.0000000000005,880.8847247831685) translate(7.700000000000003 57.89999999999999)"/><use xlink:href="#v" transform="matrix(1,0,0,1,565.0000000000005,880.8847247831685) translate(120.4 57.89999999999999)"/><use xlink:href="#w" transform="matrix(1,0,0,1,565.0000000000005,880.8847247831685) translate(45.099999999999994 79.5)"/><path d="M368 875.88c17.67 0 32 17.9 32 40s-14.33 40-32 40h-96c-17.67 0-32-17.9-32-40s14.33-40 32-40z" stroke="#000" stroke-opacity="0" fill="#ff741d"/><use xlink:href="#q" transform="matrix(1,0,0,1,245.00000000000045,880.8847247831685) translate(12.17499999999999 17)"/><use xlink:href="#r" transform="matrix(1,0,0,1,245.00000000000045,880.8847247831685) translate(62.02499999999999 17)"/><use xlink:href="#s" transform="matrix(1,0,0,1,245.00000000000045,880.8847247831685) translate(82.975 17)"/><use xlink:href="#x" transform="matrix(1,0,0,1,245.00000000000045,880.8847247831685) translate(42.625 38.6)"/><use xlink:href="#v" transform="matrix(1,0,0,1,245.00000000000045,880.8847247831685) translate(85.475 38.6)"/><use xlink:href="#y" transform="matrix(1,0,0,1,245.00000000000045,880.8847247831685) translate(32.64999999999999 60.2)"/><path d="M385.32 839.63h-53.3l-3 .4-2.76 1.14-2.4 1.84-1.82 2.4-1.14 2.75-.4 3.02v8.33h-1v-8.4l.42-3.2 1.24-3 2-2.6 2.6-2 3-1.24 3.2-.43h53.37m95.17-11.46l-.42 3.2-1.24 3-2 2.6-2.6 2-3 1.24-3.2.43h-53.37v-1h53.3l3-.4 2.77-1.13 2.4-1.84 1.82-2.4 1.14-2.74.4-3.02v-24.22h1M480.5 802.9h-1v-.52h1M320 874.27L315.36 860h9.28z" fill="#333"/><path d="M320 875.88l-5.32-16.38h10.64m-9.27 1l3.95 12.15 3.95-12.15" fill="#333"/><use xlink:href="#k" transform="matrix(1,0,0,1,385.3250000000004,828.3347562858912) translate(0.005000000000000782 14.4)"/><path d="M628.03 838.63l3.2.43 3 1.24 2.6 2 2 2.6 1.25 3 .42 3.2v8.4h-1v-8.33l-.4-3.02-1.14-2.75-1.83-2.4-2.4-1.83-2.75-1.14-3-.4h-56.5v-1m-90.58-8.5l1.14 2.74 1.83 2.4 2.4 1.83 2.75 1.14 3 .4h56.5v1h-56.55l-3.2-.43-3-1.23-2.6-2-2-2.6-1.25-3-.42-3.2v-24.3h1v24.23" fill="#333"/><path d="M480.5 802.9h-1v-.52h1M640 874.27L635.36 860h9.28z" fill="#333"/><path d="M640 875.88l-5.32-16.38h10.64m-9.27 1l3.95 12.15 3.95-12.15" fill="#333"/><use xlink:href="#l" transform="matrix(1,0,0,1,548.5250000000002,828.3347562858912) translate(0.005000000000000782 14.4)"/><path d="M1185.33 839.63h-53.3l-3 .4-2.77 1.14-2.4 1.84-1.82 2.4-1.14 2.75-.4 3.02v8.33h-1v-8.4l.42-3.2 1.24-3 2-2.6 2.6-2 3-1.24 3.2-.43h53.37m95.17-11.46l-.42 3.2-1.24 3-2 2.6-2.6 2-3 1.24-3.2.43h-53.37v-1h53.3l3-.4 2.77-1.13 2.4-1.84 1.82-2.4 1.14-2.74.4-3.02v-24.22h1M1280.5 802.9h-1v-.52h1M1120 874.27l-4.64-14.27h9.28z" fill="#333"/><path d="M1120 875.88l-5.32-16.38h10.64m-9.27 1l3.95 12.15 3.95-12.15" fill="#333"/><use xlink:href="#k" transform="matrix(1,0,0,1,1185.3250000000005,828.3347562858912) translate(0.005000000000000782 14.4)"/><path d="M1428.03 838.63l3.2.43 3 1.24 2.6 2 2 2.6 1.25 3 .42 3.2v8.4h-1v-8.33l-.4-3.02-1.14-2.75-1.83-2.4-2.4-1.83-2.75-1.14-3-.4h-56.5v-1m-90.58-8.5l1.14 2.74 1.83 2.4 2.4 1.83 2.75 1.14 3 .4h56.5v1h-56.55l-3.2-.43-3-1.23-2.6-2-2-2.6-1.25-3-.42-3.2v-24.3h1v24.23" fill="#333"/><path d="M1280.5 802.9h-1v-.52h1M1440 874.27l-4.64-14.27h9.28z" fill="#333"/><path d="M1440 875.88l-5.32-16.38h10.64m-9.27 1l3.95 12.15 3.95-12.15" fill="#333"/><use xlink:href="#l" transform="matrix(1,0,0,1,1348.5250000000005,828.3347562858912) translate(0.005000000000000782 14.4)"/><path d="M528 483.06c17.67 0 32 17.9 32 40s-14.33 40-32 40h-96c-17.67 0-32-17.9-32-40s14.33-40 32-40z" stroke="#000" stroke-opacity="0" fill="#ff741d"/><use xlink:href="#a" transform="matrix(1,0,0,1,405.00000000000045,488.0639768230026) translate(21.64999999999999 27.799999999999997)"/><use xlink:href="#b" transform="matrix(1,0,0,1,405.00000000000045,488.0639768230026) translate(50.55 27.799999999999997)"/><use xlink:href="#z" transform="matrix(1,0,0,1,405.00000000000045,488.0639768230026) translate(87.45 27.799999999999997)"/><use xlink:href="#A" transform="matrix(1,0,0,1,405.00000000000045,488.0639768230026) translate(16.574999999999996 49.4)"/><path d="M480.5 706h-1v-23.07h1m0-21.6h-1v-97.77h1" fill="#333"/><path d="M480.5 563.58h-1v-.52h1M480 720.77l-4.64-14.27h9.28z" fill="#333"/><path d="M480 722.38L474.68 706h10.64m-9.27 1l3.95 12.15 3.95-12.15" fill="#333"/><use xlink:href="#l" transform="matrix(1,0,0,1,468.52500000000043,661.3321906268488) translate(0.005000000000000782 14.4)"/><path d="M1328 483.06c17.67 0 32 17.9 32 40s-14.33 40-32 40h-96c-17.67 0-32-17.9-32-40s14.33-40 32-40z" stroke="#000" stroke-opacity="0" fill="#ff741d"/><use xlink:href="#a" transform="matrix(1,0,0,1,1205.0000000000005,488.0639768230026) translate(21.64999999999999 27.799999999999997)"/><use xlink:href="#b" transform="matrix(1,0,0,1,1205.0000000000005,488.0639768230026) translate(50.55 27.799999999999997)"/><use xlink:href="#z" transform="matrix(1,0,0,1,1205.0000000000005,488.0639768230026) translate(87.45 27.799999999999997)"/><use xlink:href="#A" transform="matrix(1,0,0,1,1205.0000000000005,488.0639768230026) translate(16.574999999999996 49.4)"/><path d="M948 960c17.67 0 32 17.9 32 40s-14.33 40-32 40h-96c-17.67 0-32-17.9-32-40s14.33-40 32-40z" stroke="#000" stroke-opacity="0" fill="#ff741d"/><use xlink:href="#a" transform="matrix(1,0,0,1,825,965) translate(10.699999999999989 27.799999999999997)"/><use xlink:href="#b" transform="matrix(1,0,0,1,825,965) translate(39.599999999999994 27.799999999999997)"/><use xlink:href="#g" transform="matrix(1,0,0,1,825,965) translate(76.5 27.799999999999997)"/><use xlink:href="#h" transform="matrix(1,0,0,1,825,965) translate(122.4 27.799999999999997)"/><use xlink:href="#i" transform="matrix(1,0,0,1,825,965) translate(11.649999999999991 49.4)"/><use xlink:href="#j" transform="matrix(1,0,0,1,825,965) translate(69.5 49.4)"/><path d="M1115.3 584.56H912.04l-3 .4-2.77 1.14-2.4 1.84-1.82 2.4-1.14 2.74-.4 3.02v347.52h-1v-347.6l.42-3.2 1.24-3 2-2.6 2.6-2 3-1.24 3.2-.42h203.35m165.2-11.46l-.42 3.2-1.24 3-2 2.6-2.6 2-3 1.24-3.2.42h-123.38v-1h123.3l3.02-.4 2.76-1.13 2.4-1.84 1.82-2.4 1.14-2.75.4-3.02v-8.47h1" fill="#333"/><path d="M1280.5 563.58h-1v-.52h1M900 958.38l-4.64-14.26h9.28z" fill="#333"/><path d="M900 960l-5.32-16.38h10.64m-9.27 1l3.95 12.14 3.95-12.14" fill="#333"/><use xlink:href="#k" transform="matrix(1,0,0,1,1115.30870580156,573.2639768230026) translate(0.005000000000000782 14.4)"/><path d="M708.03 583.56l3.2.42 3 1.25 2.6 2 2 2.6 1.25 3 .42 3.2v24.15h-1V596.1l-.4-3.02-1.14-2.75-1.83-2.4-2.4-1.83-2.75-1.14-3-.4H557.23v-1m-76.34-8.5l1.14 2.74 1.83 2.4 2.4 1.83 2.75 1.14 3 .4h35.87v1h-35.93l-3.2-.43-3-1.24-2.6-2-2-2.6-1.25-3-.42-3.2v-8.54h1v8.47" fill="#333"/><path d="M480.5 563.58h-1v-.52h1M720 634.95l-4.64-14.27h9.28z" fill="#333"/><path d="M720 636.56l-5.32-16.38h10.64m-9.27 1l3.95 12.15 3.95-12.15" fill="#333"/><use xlink:href="#k" transform="matrix(1,0,0,1,527.88942761276,573.2639768230026) translate(0.005000000000000782 14.4)"/><path d="M1280.5 706h-1v-52.48h1m0-21.6h-1v-68.36h1" fill="#333"/><path d="M1280.5 563.58h-1v-.52h1M1280 720.77l-4.64-14.27h9.28z" fill="#333"/><path d="M1280 722.38l-5.32-16.38h10.64m-9.27 1l3.95 12.15 3.95-12.15" fill="#333"/><use xlink:href="#l" transform="matrix(1,0,0,1,1268.5250000000005,631.9243823058083) translate(0.005000000000000782 14.4)"/><path d="M1088 1120c17.67 0 32 17.9 32 40s-14.33 40-32 40h-96c-17.67 0-32-17.9-32-40s14.33-40 32-40z" stroke="#000" stroke-opacity="0" fill="#ff741d"/><use xlink:href="#B" transform="matrix(1,0,0,1,965.0000000000005,1125) translate(10.774999999999991 38.6)"/><path d="M900.5 1277.97l.4 3 1.14 2.77 1.83 2.4 2.4 1.82 2.75 1.14 3 .4h78.15v1h-78.2l-3.2-.42-3-1.24-2.6-2-2-2.6-1.25-3-.42-3.2V1040.5h1m220.1-67.4l1.44 2.34 2.66.94h43.33l3.2.43 3 1.25 2.6 2 2 2.6 1.25 3 .42 3.2v289.18l-.42 3.2-1.24 3-2 2.6-2.6 2-3 1.25-3.2.42H1019.5v-1h148.45l3-.4 2.77-1.14 2.4-1.83 1.82-2.4 1.14-2.75.4-3V988.9l-.4-3.02-1.14-2.75-1.83-2.4-2.4-1.83-2.75-1.14-3-.4h-43.45l-3.16-1.12-1.75-2.83-.12-1.1 1-.1M900.5 1040.5h-1v-.5h1M1124.64 971.77h-9.28l4.64-14.27z" fill="#333"/><path d="M1125.32 972.27h-10.64l5.32-16.4m-3.95 15.4h7.9l-3.95-12.15" fill="#333"/><g><use xlink:href="#k" transform="matrix(1,0,0,1,990.1666473068997,1279.2) translate(0.005000000000000782 14.4)"/></g><path d="M1028.03 1079.5l3.2.42 3 1.24 2.6 2 2 2.6 1.25 3 .42 3.2v11.66h-1v-11.6l-.4-3-1.14-2.76-1.83-2.4-2.4-1.82-2.75-1.14-3-.4h-23.72v-1m-103.36-8.52l1.14 2.76 1.83 2.4 2.4 1.82 2.75 1.14 3 .4h69.3v1h-69.35l-3.2-.42-3-1.24-2.6-2-2-2.6-1.25-3-.42-3.2v-27.54h1v27.47M900.5 1040.5h-1v-.5h1M1040 1118.38l-4.64-14.26h9.28z" fill="#333"/><path d="M1040 1120l-5.32-16.38h10.64m-9.27 1l3.95 12.14 3.95-12.14" fill="#333"/><g><use xlink:href="#l" transform="matrix(1,0,0,1,981.3074100084648,1069.2) translate(0.005000000000000782 14.4)"/></g><path d="M768 636.56c17.67 0 32 21.58 32 48.2 0 26.62-14.33 48.2-32 48.2h-96c-17.67 0-32-21.58-32-48.2 0-26.62 14.33-48.2 32-48.2z" stroke="#000" stroke-opacity="0" fill="#ff741d"/><g><use xlink:href="#a" transform="matrix(1,0,0,1,645.0000000000005,641.5639138175571) translate(18.599999999999994 14.69999999999999)"/><use xlink:href="#b" transform="matrix(1,0,0,1,645.0000000000005,641.5639138175571) translate(47.5 14.69999999999999)"/><use xlink:href="#C" transform="matrix(1,0,0,1,645.0000000000005,641.5639138175571) translate(84.4 14.69999999999999)"/><use xlink:href="#g" transform="matrix(1,0,0,1,645.0000000000005,641.5639138175571) translate(7.174999999999983 36.29999999999999)"/><use xlink:href="#e" transform="matrix(1,0,0,1,645.0000000000005,641.5639138175571) translate(53.07499999999999 36.29999999999999)"/><use xlink:href="#D" transform="matrix(1,0,0,1,645.0000000000005,641.5639138175571) translate(74.975 36.29999999999999)"/><use xlink:href="#E" transform="matrix(1,0,0,1,645.0000000000005,641.5639138175571) translate(121.875 36.29999999999999)"/><use xlink:href="#F" transform="matrix(1,0,0,1,645.0000000000005,641.5639138175571) translate(22.049999999999997 57.89999999999999)"/><use xlink:href="#G" transform="matrix(1,0,0,1,645.0000000000005,641.5639138175571) translate(31.099999999999994 79.5)"/></g><path d="M800.5 1108.03l-.42 3.2-1.24 3-2 2.6-2.6 2-3 1.25-3.2.42h-51.66v-1h51.6l3-.4 2.76-1.14 2.4-1.83 1.82-2.4 1.14-2.75.4-3V878h1m-3.66-105.64l2 2.6 1.24 3 .42 3.2v75.25h-1v-75.17l-.4-3-1.14-2.77-1.83-2.4-2.4-1.82-1.05-.44h2.13m-74.3-13.63l.4 3 1.14 2.77 1.83 2.4 2.4 1.82 2.75 1.14 3 .4h56l.14.02v1l-.2-.02h-56l-3.2-.42-3-1.24-2.6-2-2-2.6-1.24-3-.42-3.2v-23.78h1" fill="#333"/><path d="M720.5 733.48h-1v-.52h1M735.88 1124.64l-14.26-4.64 14.26-4.64z" fill="#333"/><path d="M736.38 1125.32L720 1120l16.38-5.32m-13.14 5.32l12.14 3.95v-7.9" fill="#333"/><g><use xlink:href="#k" transform="matrix(1,0,0,1,785.325,856.408949429052) translate(0.005000000000000782 14.4)"/></g><path d="M888.03 759.5l3.2.42 3 1.24 2.6 2 2 2.6 1.25 3 .42 3.2v171.66h-1v-171.6l-.4-3-1.14-2.76-1.83-2.4-2.4-1.82-2.75-1.14-3-.4H811.1v-1m-90.2-8.52l1.14 2.76 1.83 2.4 2.4 1.82 2.75 1.14 3 .4h56.14v1h-56.2l-3.2-.42-3-1.24-2.6-2-2-2.6-1.24-3-.42-3.2v-14.58h1v14.5" fill="#333"/><path d="M720.5 733.48h-1v-.52h1M900 958.38l-4.64-14.26h9.28z" fill="#333"/><path d="M900 960l-5.32-16.38h10.64m-9.27 1l3.95 12.14 3.95-12.14" fill="#333"/><g><use xlink:href="#l" transform="matrix(1,0,0,1,788.1567552539916,749.2) translate(0.005000000000000782 14.4)"/></g><path d="M688 1080c17.67 0 32 17.9 32 40s-14.33 40-32 40h-96c-17.67 0-32-17.9-32-40s14.33-40 32-40z" stroke="#000" stroke-opacity="0" fill="#ff741d"/><g><use xlink:href="#a" transform="matrix(1,0,0,1,565.0000000000005,1085) translate(10.699999999999989 27.799999999999997)"/><use xlink:href="#b" transform="matrix(1,0,0,1,565.0000000000005,1085) translate(39.599999999999994 27.799999999999997)"/><use xlink:href="#g" transform="matrix(1,0,0,1,565.0000000000005,1085) translate(76.5 27.799999999999997)"/><use xlink:href="#h" transform="matrix(1,0,0,1,565.0000000000005,1085) translate(122.4 27.799999999999997)"/><use xlink:href="#i" transform="matrix(1,0,0,1,565.0000000000005,1085) translate(11.649999999999991 49.4)"/><use xlink:href="#j" transform="matrix(1,0,0,1,565.0000000000005,1085) translate(69.5 49.4)"/></g><path d="M600.93 1228.7h-24.55v-1h24.55m39.57-11.47l-.42 3.2-1.24 3-2 2.6-2.6 2-3 1.25-.96.13v-1l.7-.1 2.76-1.14 2.4-1.83 1.82-2.4 1.14-2.75.4-3v-55.68h1M640.5 1160.5h-1v-.5h1M575.88 1232.84l-14.26-4.64 14.26-4.64z" fill="#333"/><path d="M576.38 1233.52L560 1228.2l16.38-5.32m-13.14 5.32l12.14 3.95v-7.9" fill="#333"/><g><use xlink:href="#k" transform="matrix(1,0,0,1,600.9258120334387,1217.4) translate(0.005000000000000782 14.4)"/></g><path d="M528 1180c17.67 0 32 21.58 32 48.2 0 26.62-14.33 48.2-32 48.2h-96c-17.67 0-32-21.58-32-48.2 0-26.62 14.33-48.2 32-48.2z" stroke="#000" stroke-opacity="0" fill="#ff741d"/><g><use xlink:href="#q" transform="matrix(1,0,0,1,405.00000000000045,1185) translate(12.17499999999999 14.69999999999999)"/><use xlink:href="#r" transform="matrix(1,0,0,1,405.00000000000045,1185) translate(62.02499999999999 14.69999999999999)"/><use xlink:href="#s" transform="matrix(1,0,0,1,405.00000000000045,1185) translate(82.975 14.69999999999999)"/><use xlink:href="#H" transform="matrix(1,0,0,1,405.00000000000045,1185) translate(16.650000000000006 36.29999999999999)"/><use xlink:href="#I" transform="matrix(1,0,0,1,405.00000000000045,1185) translate(97.45 36.29999999999999)"/><use xlink:href="#J" transform="matrix(1,0,0,1,405.00000000000045,1185) translate(7.174999999999997 57.89999999999999)"/><use xlink:href="#x" transform="matrix(1,0,0,1,405.00000000000045,1185) translate(78.075 57.89999999999999)"/><use xlink:href="#v" transform="matrix(1,0,0,1,405.00000000000045,1185) translate(120.925 57.89999999999999)"/><use xlink:href="#y" transform="matrix(1,0,0,1,405.00000000000045,1185) translate(32.64999999999999 79.5)"/></g><path d="M848 1169.2c17.67 0 32 26.42 32 59s-14.33 59-32 59h-96c-17.67 0-32-26.42-32-59s14.33-59 32-59z" stroke="#000" stroke-opacity="0" fill="#ff741d"/><g><use xlink:href="#q" transform="matrix(1,0,0,1,725,1174.2) translate(12.17499999999999 14.899999999999993)"/><use xlink:href="#r" transform="matrix(1,0,0,1,725,1174.2) translate(62.02499999999999 14.899999999999993)"/><use xlink:href="#s" transform="matrix(1,0,0,1,725,1174.2) translate(82.975 14.899999999999993)"/><use xlink:href="#H" transform="matrix(1,0,0,1,725,1174.2) translate(16.650000000000006 36.49999999999999)"/><use xlink:href="#I" transform="matrix(1,0,0,1,725,1174.2) translate(97.45 36.49999999999999)"/><use xlink:href="#J" transform="matrix(1,0,0,1,725,1174.2) translate(20.625 58.099999999999994)"/><use xlink:href="#t" transform="matrix(1,0,0,1,725,1174.2) translate(91.525 58.099999999999994)"/><use xlink:href="#u" transform="matrix(1,0,0,1,725,1174.2) translate(7.700000000000003 79.70000000000002)"/><use xlink:href="#v" transform="matrix(1,0,0,1,725,1174.2) translate(120.4 79.70000000000002)"/><use xlink:href="#w" transform="matrix(1,0,0,1,725,1174.2) translate(45.099999999999994 101.30000000000001)"/></g><path d="M640.5 1216.17l.4 3 1.14 2.77 1.83 2.4 2.4 1.82 2.75 1.14 3 .4h20.03v1h-20.08l-3.2-.42-3-1.24-2.6-2-2-2.6-1.25-3-.42-3.2v-55.74h1m63.12 67.2v1H695v-1M640.5 1160.5h-1v-.5h1M718.38 1228.2l-14.26 4.64v-9.28z" fill="#333"/><path d="M720 1228.2l-16.38 5.32v-10.64m1 9.27l12.14-3.95-12.14-3.95" fill="#333"/><g><use xlink:href="#l" transform="matrix(1,0,0,1,672.0541774991973,1217.4) translate(0.005000000000000782 14.4)"/></g><defs><path fill="#fff" d="M24-248c120-7 223 5 221 122C244-46 201 0 124 0H24v-248zM76-40c74 7 117-18 117-86 0-67-45-88-117-82v168" id="K"/><path fill="#fff" d="M110-194c64 0 96 36 96 99 0 64-35 99-97 99-61 0-95-36-95-99 0-62 34-99 96-99zm-1 164c35 0 45-28 45-65 0-40-10-65-43-65-34 0-45 26-45 65 0 36 10 65 43 65" id="L"/><g id="a"><use transform="matrix(0.05,0,0,0.05,0,0)" xlink:href="#K"/><use transform="matrix(0.05,0,0,0.05,12.950000000000001,0)" xlink:href="#L"/></g><path fill="#fff" d="M123 10C108 53 80 86 19 72V37c35 8 53-11 59-39L3-190h52l48 148c12-52 28-100 44-148h51" id="M"/><path fill="#fff" d="M85 4C-2 5 27-109 22-190h50c7 57-23 150 33 157 60-5 35-97 40-157h50l1 190h-47c-2-12 1-28-3-38-12 25-28 42-61 42" id="N"/><g id="b"><use transform="matrix(0.05,0,0,0.05,0,0)" xlink:href="#M"/><use transform="matrix(0.05,0,0,0.05,10,0)" xlink:href="#L"/><use transform="matrix(0.05,0,0,0.05,20.950000000000003,0)" xlink:href="#N"/></g><path fill="#fff" d="M147 0L96-86 75-71V0H25v-261h50v150l67-79h53l-66 74L201 0h-54" id="O"/><path fill="#fff" d="M135-194c87-1 58 113 63 194h-50c-7-57 23-157-34-157-59 0-34 97-39 157H25l-1-190h47c2 12-1 28 3 38 12-26 28-41 61-42" id="P"/><path fill="#fff" d="M231 0h-52l-39-155L100 0H48L-1-190h46L77-45c9-52 24-97 36-145h53l37 145 32-145h46" id="Q"/><g id="c"><use transform="matrix(0.05,0,0,0.05,0,0)" xlink:href="#O"/><use transform="matrix(0.05,0,0,0.05,10,0)" xlink:href="#P"/><use transform="matrix(0.05,0,0,0.05,20.950000000000003,0)" xlink:href="#L"/><use transform="matrix(0.05,0,0,0.05,31.900000000000006,0)" xlink:href="#Q"/></g><path fill="#fff" d="M114-157C55-157 80-60 75 0H25v-261h50l-1 109c12-26 28-41 61-42 86-1 58 113 63 194h-50c-7-57 23-157-34-157" id="R"/><g id="d"><use transform="matrix(0.05,0,0,0.05,0,0)" xlink:href="#R"/><use transform="matrix(0.05,0,0,0.05,10.950000000000001,0)" xlink:href="#L"/><use transform="matrix(0.05,0,0,0.05,21.900000000000002,0)" xlink:href="#Q"/></g><path fill="#fff" d="M115-3C79 11 28 4 28-45v-112H4v-33h27l15-45h31v45h36v33H77v99c-1 23 16 31 38 25v30" id="S"/><g id="e"><use transform="matrix(0.05,0,0,0.05,0,0)" xlink:href="#S"/><use transform="matrix(0.05,0,0,0.05,5.95,0)" xlink:href="#L"/></g><path fill="#fff" d="M190-63c-7 42-38 67-86 67-59 0-84-38-90-98-12-110 154-137 174-36l-49 2c-2-19-15-32-35-32-30 0-35 28-38 64-6 74 65 87 74 30" id="T"/><path fill="#fff" d="M88-194c31-1 46 15 58 34l-1-101h50l1 261h-48c-2-10 0-23-3-31C134-8 116 4 84 4 32 4 16-41 15-95c0-56 19-97 73-99zm17 164c33 0 40-30 41-66 1-37-9-64-41-64s-38 30-39 65c0 43 13 65 39 65" id="U"/><path fill="#fff" d="M185-48c-13 30-37 53-82 52C43 2 14-33 14-96s30-98 90-98c62 0 83 45 84 108H66c0 31 8 55 39 56 18 0 30-7 34-22zm-45-69c5-46-57-63-70-21-2 6-4 13-4 21h74" id="V"/><path fill="#fff" d="M110-251c83-7 118 89 53 130-17 10-36 21-38 46H78c2-56 65-53 71-103 2-21-15-35-38-34-25 1-41 14-44 38l-50-2c6-48 39-70 93-75zM77 0v-47h51V0H77" id="W"/><g id="f"><use transform="matrix(0.05,0,0,0.05,0,0)" xlink:href="#T"/><use transform="matrix(0.05,0,0,0.05,10,0)" xlink:href="#L"/><use transform="matrix(0.05,0,0,0.05,20.950000000000003,0)" xlink:href="#U"/><use transform="matrix(0.05,0,0,0.05,31.900000000000006,0)" xlink:href="#V"/><use transform="matrix(0.05,0,0,0.05,41.900000000000006,0)" xlink:href="#W"/></g><path fill="#fff" d="M133-34C117-15 103 5 69 4 32 3 11-16 11-54c-1-60 55-63 116-61 1-26-3-47-28-47-18 1-26 9-28 27l-52-2c7-38 36-58 82-57s74 22 75 68l1 82c-1 14 12 18 25 15v27c-30 8-71 5-69-32zm-48 3c29 0 43-24 42-57-32 0-66-3-65 30 0 17 8 27 23 27" id="X"/><g id="g"><use transform="matrix(0.05,0,0,0.05,0,0)" xlink:href="#Q"/><use transform="matrix(0.05,0,0,0.05,14,0)" xlink:href="#X"/><use transform="matrix(0.05,0,0,0.05,24,0)" xlink:href="#P"/><use transform="matrix(0.05,0,0,0.05,34.95,0)" xlink:href="#S"/></g><g id="h"><use transform="matrix(0.05,0,0,0.05,0,0)" xlink:href="#S"/><use transform="matrix(0.05,0,0,0.05,5.95,0)" xlink:href="#L"/></g><path fill="#fff" d="M137-138c1-29-70-34-71-4 15 46 118 7 119 86 1 83-164 76-172 9l43-7c4 19 20 25 44 25 33 8 57-30 24-41C81-84 22-81 20-136c-2-80 154-74 161-7" id="Y"/><path fill="#fff" d="M135-194c53 0 70 44 70 98 0 56-19 98-73 100-31 1-45-17-59-34 3 33 2 69 2 105H25l-1-265h48c2 10 0 23 3 31 11-24 29-35 60-35zM114-30c33 0 39-31 40-66 0-38-9-64-40-64-56 0-55 130 0 130" id="Z"/><g id="i"><use transform="matrix(0.05,0,0,0.05,0,0)" xlink:href="#Y"/><use transform="matrix(0.05,0,0,0.05,10,0)" xlink:href="#Z"/><use transform="matrix(0.05,0,0,0.05,20.950000000000003,0)" xlink:href="#V"/><use transform="matrix(0.05,0,0,0.05,30.950000000000003,0)" xlink:href="#P"/><use transform="matrix(0.05,0,0,0.05,41.900000000000006,0)" xlink:href="#U"/></g><path fill="#fff" d="M220-157c-53 9-28 100-34 157h-49v-107c1-27-5-49-29-50C55-147 81-57 75 0H25l-1-190h47c2 12-1 28 3 38 10-53 101-56 108 0 13-22 24-43 59-42 82 1 51 116 57 194h-49v-107c-1-25-5-48-29-50" id="aa"/><g id="j"><use transform="matrix(0.05,0,0,0.05,0,0)" xlink:href="#aa"/><use transform="matrix(0.05,0,0,0.05,16,0)" xlink:href="#L"/><use transform="matrix(0.05,0,0,0.05,26.950000000000003,0)" xlink:href="#P"/><use transform="matrix(0.05,0,0,0.05,37.900000000000006,0)" xlink:href="#V"/><use transform="matrix(0.05,0,0,0.05,47.900000000000006,0)" xlink:href="#M"/><use transform="matrix(0.05,0,0,0.05,57.900000000000006,0)" xlink:href="#W"/></g><path fill="#333" d="M137-103V0h-34v-103L8-248h37l75 118 75-118h37" id="ab"/><path fill="#333" d="M100-194c63 0 86 42 84 106H49c0 40 14 67 53 68 26 1 43-12 49-29l28 8c-11 28-37 45-77 45C44 4 14-33 15-96c1-61 26-98 85-98zm52 81c6-60-76-77-97-28-3 7-6 17-6 28h103" id="ac"/><path fill="#333" d="M135-143c-3-34-86-38-87 0 15 53 115 12 119 90S17 21 10-45l28-5c4 36 97 45 98 0-10-56-113-15-118-90-4-57 82-63 122-42 12 7 21 19 24 35" id="ad"/><g id="k"><use transform="matrix(0.05,0,0,0.05,0,0)" xlink:href="#ab"/><use transform="matrix(0.05,0,0,0.05,10.35,0)" xlink:href="#ac"/><use transform="matrix(0.05,0,0,0.05,20.35,0)" xlink:href="#ad"/></g><path fill="#333" d="M190 0L58-211 59 0H30v-248h39L202-35l-2-213h31V0h-41" id="ae"/><path fill="#333" d="M100-194c62-1 85 37 85 99 1 63-27 99-86 99S16-35 15-95c0-66 28-99 85-99zM99-20c44 1 53-31 53-75 0-43-8-75-51-75s-53 32-53 75 10 74 51 75" id="af"/><g id="l"><use transform="matrix(0.05,0,0,0.05,0,0)" xlink:href="#ae"/><use transform="matrix(0.05,0,0,0.05,12.950000000000001,0)" xlink:href="#af"/></g><path fill="#fff" d="M238-95c0 69-44 99-111 99C63 4 22-25 22-93v-155h51v151c-1 38 19 59 55 60 90 1 49-130 58-211h52v153" id="ag"/><g id="m"><use transform="matrix(0.05,0,0,0.05,0,0)" xlink:href="#ag"/><use transform="matrix(0.05,0,0,0.05,12.950000000000001,0)" xlink:href="#Y"/><use transform="matrix(0.05,0,0,0.05,22.950000000000003,0)" xlink:href="#V"/></g><path fill="#fff" d="M169-182c-1-43-94-46-97-3 18 66 151 10 154 114 3 95-165 93-204 36-6-8-10-19-12-30l50-8c3 46 112 56 116 5-17-69-150-10-154-114-4-87 153-88 188-35 5 8 8 18 10 28" id="ah"/><path fill="#fff" d="M84 4C32 4 15-41 15-95c0-55 18-99 73-99 29 0 47 12 58 34l2-30h48l-1 265h-49V-32C136-9 114 4 84 4zm21-34c32 0 41-29 41-66 0-36-9-64-40-64-33 0-39 30-40 65 0 43 13 65 39 65" id="ai"/><path fill="#fff" d="M135-150c-39-12-60 13-60 57V0H25l-1-190h47c2 13-1 29 3 40 6-28 27-53 61-41v41" id="aj"/><path fill="#fff" d="M80-75H40l-6-173h52zM34 0v-47h51V0H34" id="ak"/><g id="n"><use transform="matrix(0.05,0,0,0.05,0,0)" xlink:href="#ah"/><use transform="matrix(0.05,0,0,0.05,12,0)" xlink:href="#ai"/><use transform="matrix(0.05,0,0,0.05,22.950000000000003,0)" xlink:href="#N"/><use transform="matrix(0.05,0,0,0.05,33.900000000000006,0)" xlink:href="#X"/><use transform="matrix(0.05,0,0,0.05,43.900000000000006,0)" xlink:href="#aj"/><use transform="matrix(0.05,0,0,0.05,50.900000000000006,0)" xlink:href="#V"/><use transform="matrix(0.05,0,0,0.05,60.900000000000006,0)" xlink:href="#Y"/><use transform="matrix(0.05,0,0,0.05,70.9,0)" xlink:href="#Z"/><use transform="matrix(0.05,0,0,0.05,81.85000000000001,0)" xlink:href="#X"/><use transform="matrix(0.05,0,0,0.05,91.85000000000001,0)" xlink:href="#T"/><use transform="matrix(0.05,0,0,0.05,101.85000000000001,0)" xlink:href="#V"/><use transform="matrix(0.05,0,0,0.05,111.85000000000001,0)" xlink:href="#ak"/></g><path fill="#fff" d="M67-125c0 54 23 88 75 88 28 0 53-7 68-21v-34h-60v-39h108v91C232-14 192 4 140 4 58 4 20-42 15-125 8-236 126-280 215-234c19 10 29 26 37 47l-47 15c-11-23-29-39-63-39-53 1-75 33-75 86" id="al"/><path fill="#fff" d="M195-6C206 82 75 100 31 46c-4-6-6-13-8-21l49-6c3 16 16 24 34 25 40 0 42-37 40-79-11 22-30 35-61 35-53 0-70-43-70-97 0-56 18-96 73-97 30 0 46 14 59 34l2-30h47zm-90-29c32 0 41-27 41-63 0-35-9-62-40-62-32 0-39 29-40 63 0 36 9 62 39 62" id="am"/><path fill="#fff" d="M25 0v-261h50V0H25" id="an"/><g id="o"><use transform="matrix(0.05,0,0,0.05,0,0)" xlink:href="#al"/><use transform="matrix(0.05,0,0,0.05,14,0)" xlink:href="#L"/><use transform="matrix(0.05,0,0,0.05,24.950000000000003,0)" xlink:href="#L"/><use transform="matrix(0.05,0,0,0.05,35.900000000000006,0)" xlink:href="#am"/><use transform="matrix(0.05,0,0,0.05,46.85000000000001,0)" xlink:href="#an"/><use transform="matrix(0.05,0,0,0.05,51.85,0)" xlink:href="#V"/></g><path fill="#fff" d="M25-224v-37h50v37H25zM25 0v-190h50V0H25" id="ao"/><g id="p"><use transform="matrix(0.05,0,0,0.05,0,0)" xlink:href="#ah"/><use transform="matrix(0.05,0,0,0.05,12,0)" xlink:href="#ao"/><use transform="matrix(0.05,0,0,0.05,17,0)" xlink:href="#S"/><use transform="matrix(0.05,0,0,0.05,22.95,0)" xlink:href="#V"/><use transform="matrix(0.05,0,0,0.05,32.95,0)" xlink:href="#Y"/></g><path fill="#fff" d="M67-125c0 53 21 87 73 88 37 1 54-22 65-47l45 17C233-25 199 4 140 4 58 4 20-42 15-125 8-235 124-281 211-232c18 10 29 29 36 50l-46 12c-8-25-30-41-62-41-52 0-71 34-72 86" id="ap"/><g id="q"><use transform="matrix(0.05,0,0,0.05,0,0)" xlink:href="#ap"/><use transform="matrix(0.05,0,0,0.05,12.950000000000001,0)" xlink:href="#L"/><use transform="matrix(0.05,0,0,0.05,23.900000000000002,0)" xlink:href="#U"/><use transform="matrix(0.05,0,0,0.05,34.85,0)" xlink:href="#V"/></g><g id="r"><use transform="matrix(0.05,0,0,0.05,0,0)" xlink:href="#ao"/><use transform="matrix(0.05,0,0,0.05,5,0)" xlink:href="#P"/></g><path fill="#fff" d="M240-174c0 40-23 61-54 70L253 0h-59l-57-94H76V0H24v-248c93 4 217-23 216 74zM76-134c48-2 112 12 112-38 0-48-66-32-112-35v73" id="aq"/><path fill="#fff" d="M76-54c-1 42 2 86-19 110H24C36 42 46 24 48 0H25v-54h51" id="ar"/><g id="s"><use transform="matrix(0.05,0,0,0.05,0,0)" xlink:href="#aq"/><use transform="matrix(0.05,0,0,0.05,12.950000000000001,0)" xlink:href="#V"/><use transform="matrix(0.05,0,0,0.05,22.950000000000003,0)" xlink:href="#Z"/><use transform="matrix(0.05,0,0,0.05,33.900000000000006,0)" xlink:href="#an"/><use transform="matrix(0.05,0,0,0.05,38.900000000000006,0)" xlink:href="#ao"/><use transform="matrix(0.05,0,0,0.05,43.900000000000006,0)" xlink:href="#S"/><use transform="matrix(0.05,0,0,0.05,49.85000000000001,0)" xlink:href="#ar"/></g><g id="t"><use transform="matrix(0.05,0,0,0.05,0,0)" xlink:href="#R"/><use transform="matrix(0.05,0,0,0.05,10.950000000000001,0)" xlink:href="#L"/><use transform="matrix(0.05,0,0,0.05,21.900000000000002,0)" xlink:href="#Y"/><use transform="matrix(0.05,0,0,0.05,31.900000000000002,0)" xlink:href="#S"/></g><path fill="#fff" d="M14-72v-43h91v43H14" id="as"/><g id="u"><use transform="matrix(0.05,0,0,0.05,0,0)" xlink:href="#L"/><use transform="matrix(0.05,0,0,0.05,10.950000000000001,0)" xlink:href="#Z"/><use transform="matrix(0.05,0,0,0.05,21.900000000000002,0)" xlink:href="#V"/><use transform="matrix(0.05,0,0,0.05,31.900000000000002,0)" xlink:href="#P"/><use transform="matrix(0.05,0,0,0.05,42.85,0)" xlink:href="#as"/><use transform="matrix(0.05,0,0,0.05,48.800000000000004,0)" xlink:href="#Y"/><use transform="matrix(0.05,0,0,0.05,58.800000000000004,0)" xlink:href="#L"/><use transform="matrix(0.05,0,0,0.05,69.75,0)" xlink:href="#N"/><use transform="matrix(0.05,0,0,0.05,80.7,0)" xlink:href="#aj"/><use transform="matrix(0.05,0,0,0.05,87.7,0)" xlink:href="#T"/><use transform="matrix(0.05,0,0,0.05,97.7,0)" xlink:href="#V"/></g><g id="v"><use transform="matrix(0.05,0,0,0.05,0,0)" xlink:href="#L"/><use transform="matrix(0.05,0,0,0.05,10.950000000000001,0)" xlink:href="#P"/></g><path fill="#fff" d="M186 0v-106H76V0H24v-248h52v99h110v-99h50V0h-50" id="at"/><path fill="#fff" d="M135-194c52 0 70 43 70 98 0 56-19 99-73 100-30 1-46-15-58-35L72 0H24l1-261h50v104c11-23 29-37 60-37zM114-30c31 0 40-27 40-66 0-37-7-63-39-63s-41 28-41 65c0 36 8 64 40 64" id="au"/><g id="w"><use transform="matrix(0.05,0,0,0.05,0,0)" xlink:href="#al"/><use transform="matrix(0.05,0,0,0.05,14,0)" xlink:href="#ao"/><use transform="matrix(0.05,0,0,0.05,19,0)" xlink:href="#S"/><use transform="matrix(0.05,0,0,0.05,24.95,0)" xlink:href="#at"/><use transform="matrix(0.05,0,0,0.05,37.9,0)" xlink:href="#N"/><use transform="matrix(0.05,0,0,0.05,48.85,0)" xlink:href="#au"/></g><g id="x"><use transform="matrix(0.05,0,0,0.05,0,0)" xlink:href="#R"/><use transform="matrix(0.05,0,0,0.05,10.950000000000001,0)" xlink:href="#L"/><use transform="matrix(0.05,0,0,0.05,21.900000000000002,0)" xlink:href="#Y"/><use transform="matrix(0.05,0,0,0.05,31.900000000000002,0)" xlink:href="#S"/></g><g id="y"><use transform="matrix(0.05,0,0,0.05,0,0)" xlink:href="#at"/><use transform="matrix(0.05,0,0,0.05,12.950000000000001,0)" xlink:href="#L"/><use transform="matrix(0.05,0,0,0.05,23.900000000000002,0)" xlink:href="#Y"/><use transform="matrix(0.05,0,0,0.05,33.900000000000006,0)" xlink:href="#S"/><use transform="matrix(0.05,0,0,0.05,39.85000000000001,0)" xlink:href="#am"/><use transform="matrix(0.05,0,0,0.05,50.80000000000001,0)" xlink:href="#X"/><use transform="matrix(0.05,0,0,0.05,60.80000000000001,0)" xlink:href="#S"/><use transform="matrix(0.05,0,0,0.05,66.75000000000001,0)" xlink:href="#L"/><use transform="matrix(0.05,0,0,0.05,77.70000000000002,0)" xlink:href="#aj"/></g><g id="z"><use transform="matrix(0.05,0,0,0.05,0,0)" xlink:href="#Q"/><use transform="matrix(0.05,0,0,0.05,14,0)" xlink:href="#X"/><use transform="matrix(0.05,0,0,0.05,24,0)" xlink:href="#P"/><use transform="matrix(0.05,0,0,0.05,34.95,0)" xlink:href="#S"/></g><g id="A"><use transform="matrix(0.05,0,0,0.05,0,0)" xlink:href="#V"/><use transform="matrix(0.05,0,0,0.05,10,0)" xlink:href="#as"/><use transform="matrix(0.05,0,0,0.05,15.949999999999998,0)" xlink:href="#T"/><use transform="matrix(0.05,0,0,0.05,25.950000000000003,0)" xlink:href="#L"/><use transform="matrix(0.05,0,0,0.05,36.9,0)" xlink:href="#aa"/><use transform="matrix(0.05,0,0,0.05,52.900000000000006,0)" xlink:href="#aa"/><use transform="matrix(0.05,0,0,0.05,68.9,0)" xlink:href="#V"/><use transform="matrix(0.05,0,0,0.05,78.9,0)" xlink:href="#aj"/><use transform="matrix(0.05,0,0,0.05,85.9,0)" xlink:href="#T"/><use transform="matrix(0.05,0,0,0.05,95.9,0)" xlink:href="#V"/><use transform="matrix(0.05,0,0,0.05,105.9,0)" xlink:href="#W"/></g><path fill="#fff" d="M4 7l51-268h42L46 7H4" id="av"/><path fill="#fff" d="M275 0h-61l-44-196L126 0H64L0-248h53L97-49l45-199h58l43 199 44-199h52" id="aw"/><g id="B"><use transform="matrix(0.05,0,0,0.05,0,0)" xlink:href="#ah"/><use transform="matrix(0.05,0,0,0.05,12,0)" xlink:href="#ai"/><use transform="matrix(0.05,0,0,0.05,22.950000000000003,0)" xlink:href="#N"/><use transform="matrix(0.05,0,0,0.05,33.900000000000006,0)" xlink:href="#X"/><use transform="matrix(0.05,0,0,0.05,43.900000000000006,0)" xlink:href="#aj"/><use transform="matrix(0.05,0,0,0.05,50.900000000000006,0)" xlink:href="#V"/><use transform="matrix(0.05,0,0,0.05,60.900000000000006,0)" xlink:href="#av"/><use transform="matrix(0.05,0,0,0.05,65.9,0)" xlink:href="#aw"/><use transform="matrix(0.05,0,0,0.05,82.50000000000001,0)" xlink:href="#V"/><use transform="matrix(0.05,0,0,0.05,92.50000000000001,0)" xlink:href="#V"/><use transform="matrix(0.05,0,0,0.05,102.5,0)" xlink:href="#au"/><use transform="matrix(0.05,0,0,0.05,113.45,0)" xlink:href="#an"/><use transform="matrix(0.05,0,0,0.05,118.45,0)" xlink:href="#M"/></g><g id="C"><use transform="matrix(0.05,0,0,0.05,0,0)" xlink:href="#aj"/><use transform="matrix(0.05,0,0,0.05,7,0)" xlink:href="#V"/><use transform="matrix(0.05,0,0,0.05,17,0)" xlink:href="#X"/><use transform="matrix(0.05,0,0,0.05,27,0)" xlink:href="#an"/><use transform="matrix(0.05,0,0,0.05,32,0)" xlink:href="#an"/><use transform="matrix(0.05,0,0,0.05,37,0)" xlink:href="#M"/></g><g id="D"><use transform="matrix(0.05,0,0,0.05,0,0)" xlink:href="#T"/><use transform="matrix(0.05,0,0,0.05,10,0)" xlink:href="#L"/><use transform="matrix(0.05,0,0,0.05,20.950000000000003,0)" xlink:href="#U"/><use transform="matrix(0.05,0,0,0.05,31.900000000000006,0)" xlink:href="#V"/></g><g id="E"><use transform="matrix(0.05,0,0,0.05,0,0)" xlink:href="#X"/><use transform="matrix(0.05,0,0,0.05,10,0)" xlink:href="#P"/></g><g id="F"><use transform="matrix(0.05,0,0,0.05,0,0)" xlink:href="#V"/><use transform="matrix(0.05,0,0,0.05,10,0)" xlink:href="#as"/><use transform="matrix(0.05,0,0,0.05,15.949999999999998,0)" xlink:href="#T"/><use transform="matrix(0.05,0,0,0.05,25.950000000000003,0)" xlink:href="#L"/><use transform="matrix(0.05,0,0,0.05,36.9,0)" xlink:href="#aa"/><use transform="matrix(0.05,0,0,0.05,52.900000000000006,0)" xlink:href="#aa"/><use transform="matrix(0.05,0,0,0.05,68.9,0)" xlink:href="#V"/><use transform="matrix(0.05,0,0,0.05,78.9,0)" xlink:href="#aj"/><use transform="matrix(0.05,0,0,0.05,85.9,0)" xlink:href="#T"/><use transform="matrix(0.05,0,0,0.05,95.9,0)" xlink:href="#V"/></g><g id="G"><use transform="matrix(0.05,0,0,0.05,0,0)" xlink:href="#Q"/><use transform="matrix(0.05,0,0,0.05,14,0)" xlink:href="#V"/><use transform="matrix(0.05,0,0,0.05,24,0)" xlink:href="#au"/><use transform="matrix(0.05,0,0,0.05,34.95,0)" xlink:href="#Y"/><use transform="matrix(0.05,0,0,0.05,44.95,0)" xlink:href="#ao"/><use transform="matrix(0.05,0,0,0.05,49.95,0)" xlink:href="#S"/><use transform="matrix(0.05,0,0,0.05,55.900000000000006,0)" xlink:href="#V"/><use transform="matrix(0.05,0,0,0.05,65.9,0)" xlink:href="#W"/><use transform="matrix(0.05,0,0,0.05,76.85000000000001,0)" xlink:href="#W"/></g><g id="H"><use transform="matrix(0.05,0,0,0.05,0,0)" xlink:href="#ao"/><use transform="matrix(0.05,0,0,0.05,5,0)" xlink:href="#P"/><use transform="matrix(0.05,0,0,0.05,15.950000000000001,0)" xlink:href="#S"/><use transform="matrix(0.05,0,0,0.05,21.900000000000002,0)" xlink:href="#V"/><use transform="matrix(0.05,0,0,0.05,31.900000000000002,0)" xlink:href="#am"/><use transform="matrix(0.05,0,0,0.05,42.85,0)" xlink:href="#aj"/><use transform="matrix(0.05,0,0,0.05,49.85,0)" xlink:href="#X"/><use transform="matrix(0.05,0,0,0.05,59.85,0)" xlink:href="#S"/><use transform="matrix(0.05,0,0,0.05,65.8,0)" xlink:href="#V"/></g><g id="I"><use transform="matrix(0.05,0,0,0.05,0,0)" xlink:href="#Q"/><use transform="matrix(0.05,0,0,0.05,14,0)" xlink:href="#ao"/><use transform="matrix(0.05,0,0,0.05,19,0)" xlink:href="#S"/><use transform="matrix(0.05,0,0,0.05,24.95,0)" xlink:href="#R"/></g><g id="J"><use transform="matrix(0.05,0,0,0.05,0,0)" xlink:href="#ah"/><use transform="matrix(0.05,0,0,0.05,12,0)" xlink:href="#ai"/><use transform="matrix(0.05,0,0,0.05,22.950000000000003,0)" xlink:href="#N"/><use transform="matrix(0.05,0,0,0.05,33.900000000000006,0)" xlink:href="#X"/><use transform="matrix(0.05,0,0,0.05,43.900000000000006,0)" xlink:href="#aj"/><use transform="matrix(0.05,0,0,0.05,50.900000000000006,0)" xlink:href="#V"/><use transform="matrix(0.05,0,0,0.05,60.900000000000006,0)" xlink:href="#ar"/></g></defs></g></svg>